0
SECTION
2
HEADER
9
$ACADVER
1
AC1015
9
$INSBASE
10
0.000000
20
0.000000
30
0.000000
9
$EXTMIN
10
490705.889926
20
8738731.966721
30
0.000000
9
$EXTMAX
10
491617.445991
20
8740271.320679
30
0.000000
9
$LIMMIN
10
490705.889926
20
8738731.966721
9
$LIMMAX
10
491617.445991
20
8740271.320679
9
$LTSCALE
40
1.00
9
$TEXTSTYLE
7
STANDARD
9
$ANGDIR
70
1
9
$AUNITS
70
2
9
$ANGBASE
50
0.0
9
$MEASUREMENT
70
1
9
$HANDSEED
5
65D
9
$PDMODE
70
0
9
$PDSIZE
40
1
0
ENDSEC
0
SECTION
2
CLASSES
0
CLASS
1
IMAGE
2
AcDbRasterImage
3
ISM
90
127
280
0
281
1
0
CLASS
1
IMAGEDEF
2
AcDbRasterImageDef
3
ISM
90
0
280
0
281
0
0
ENDSEC
0
SECTION
2
TABLES
0
TABLE
2
VPORT
5
1F5
100
AcDbSymbolTable
0
VPORT
5
1F6
100
AcDbSymbolTableRecord
100
AcDbViewportTableRecord
2
*Active
70
0
12
491178.712328
22
8739572.654708
40
2404.145408
41
0.738870
0
ENDTAB
0
TABLE
2
LTYPE
5
1F7
100
AcDbSymbolTable
0
LTYPE
5
1F8
100
AcDbSymbolTableRecord
100
AcDbLinetypeTableRecord
2
Continuous
70
0
3
Solid line
72
65
73
0
40
0.0
0
LTYPE
5
1F9
100
AcDbSymbolTableRecord
100
AcDbLinetypeTableRecord
2
ByBlock
70
0
3

72
65
73
0
40
0.0
0
LTYPE
5
1FA
100
AcDbSymbolTableRecord
100
AcDbLinetypeTableRecord
2
ByLayer
70
0
3

72
65
73
0
40
0.0
0
LTYPE
5
1FB
100
AcDbSymbolTableRecord
100
AcDbLinetypeTableRecord
2
STXCUBE0
70
0
3
———————————————————
72
65
73
1
40
1.000000
49
1.000000
74
0
0
LTYPE
5
1FC
100
AcDbSymbolTableRecord
100
AcDbLinetypeTableRecord
2
STXCUBE1
70
0
3
— — — — — — — — — —
72
65
73
2
40
1.000000
49
0.500000
74
0
49
-0.500000
74
0
0
LTYPE
5
1FD
100
AcDbSymbolTableRecord
100
AcDbLinetypeTableRecord
2
STXCUBE2
70
0
3
 —— —— —— —— —— —— 
72
65
73
2
40
1.500000
49
1.000000
74
0
49
-0.500000
74
0
0
LTYPE
5
1FE
100
AcDbSymbolTableRecord
100
AcDbLinetypeTableRecord
2
STXCUBE3
70
0
3
· · · · · · · · · ·
72
65
73
2
40
0.200000
49
0.100000
74
0
49
-0.100000
74
0
0
LTYPE
5
1FF
100
AcDbSymbolTableRecord
100
AcDbLinetypeTableRecord
2
STXCUBE4
70
0
3
— · — · — · — · — ·
72
65
73
4
40
1.000000
49
0.500000
74
0
49
-0.200000
74
0
49
0.100000
74
0
49
0.200000
74
0
0
LTYPE
5
200
100
AcDbSymbolTableRecord
100
AcDbLinetypeTableRecord
2
STXCUBE5
70
0
3
— ·· — ·· — ·· — ··
72
65
73
6
40
1.200000
49
0.500000
74
0
49
-0.200000
74
0
49
0.100000
74
0
49
0.100000
74
0
49
0.100000
74
0
49
-0.200000
74
0
0
LTYPE
5
201
100
AcDbSymbolTableRecord
100
AcDbLinetypeTableRecord
2
STXCUBE6
70
0
3
·--·--·--·--·--·--·
72
65
73
6
40
1.500000
49
0.100000
74
0
49
-0.200000
74
0
49
0.400000
74
0
49
0.200000
74
0
49
0.400000
74
0
49
-0.200000
74
0
0
LTYPE
5
202
100
AcDbSymbolTableRecord
100
AcDbLinetypeTableRecord
2
STXCUBE7
70
0
3
--··--··--··--··--·
72
65
73
8
40
1.800000
49
0.400000
74
0
49
-0.200000
74
0
49
0.400000
74
0
49
0.200000
74
0
49
0.100000
74
0
49
-0.200000
74
0
49
0.100000
74
0
49
0.200000
74
0
0
LTYPE
5
203
100
AcDbSymbolTableRecord
100
AcDbLinetypeTableRecord
2
STXCUBE8
70
0
3
···-···-···-···-···
72
65
73
8
40
1.500000
49
0.100000
74
0
49
-0.200000
74
0
49
0.100000
74
0
49
0.200000
74
0
49
0.100000
74
0
49
-0.200000
74
0
49
0.400000
74
0
49
0.200000
74
0
0
LTYPE
5
204
100
AcDbSymbolTableRecord
100
AcDbLinetypeTableRecord
2
STXCUBE9
70
0
3
···- -···- -···- - 
72
65
73
10
40
2.100000
49
0.100000
74
0
49
-0.200000
74
0
49
0.100000
74
0
49
0.200000
74
0
49
0.100000
74
0
49
-0.200000
74
0
49
0.400000
74
0
49
0.200000
74
0
49
0.400000
74
0
49
-0.200000
74
0
0
LTYPE
5
205
100
AcDbSymbolTableRecord
100
AcDbLinetypeTableRecord
2
STXCUBE10
70
0
3
—— — —— — —— — —— —
72
65
73
4
40
1.300000
49
0.600000
74
0
49
-0.200000
74
0
49
0.300000
74
0
49
0.200000
74
0
0
LTYPE
5
206
100
AcDbSymbolTableRecord
100
AcDbLinetypeTableRecord
2
STXCUBE11
70
0
3
 —— — — —— — — ——  
72
65
73
6
40
1.800000
49
0.600000
74
0
49
-0.200000
74
0
49
0.300000
74
0
49
0.200000
74
0
49
0.300000
74
0
49
-0.200000
74
0
0
ENDTAB
0
TABLE
2
LAYER
5
207
100
AcDbSymbolTable
0
LAYER
5
208
100
AcDbSymbolTableRecord
100
AcDbLayerTableRecord
2
0
70
0
62
7
6
Continuous
390
F
0
LAYER
5
209
100
AcDbSymbolTableRecord
100
AcDbLayerTableRecord
2
LAYER_DEFAULT
70
0
62
7
6
STXCUBE0
290
1
390
F
0
LAYER
5
20A
100
AcDbSymbolTableRecord
100
AcDbLayerTableRecord
2
Ponto
70
0
62
0
6
STXCUBE0
290
1
390
F
0
LAYER
5
20B
100
AcDbSymbolTableRecord
100
AcDbLayerTableRecord
2
GPSREFSTATIONS
70
1
62
-7
6
STXCUBE0
290
1
390
F
0
LAYER
5
20C
100
AcDbSymbolTableRecord
100
AcDbLayerTableRecord
2
GPSsinglePoint
70
0
62
0
6
STXCUBE0
290
1
390
F
0
LAYER
5
20D
100
AcDbSymbolTableRecord
100
AcDbLayerTableRecord
2
GPSFIXEDPOINT
70
0
62
0
6
STXCUBE0
290
1
390
F
0
ENDTAB
0
TABLE
  2
STYLE
  5
162
100
AcDbSymbolTable
  0
STYLE
  5
11B
100
AcDbSymbolTableRecord
100
AcDbTextStyleTableRecord
  2
STANDARD
 70
     0
  3
ARIAL.TTF
  4

  0
ENDTAB
  0
TABLE
  2
VIEW
  5
6
100
AcDbSymbolTable
  0
ENDTAB
  0
TABLE
  2
UCS
  5
7
100
AcDbSymbolTable
  0
ENDTAB
  0
TABLE
  2
APPID
  5
9
100
AcDbSymbolTable
  0
APPID
  5
12
100
AcDbSymbolTableRecord
100
AcDbRegAppTableRecord
  2
ACAD
 70
     0
  0
ENDTAB
  0
TABLE
  2
DIMSTYLE
  5
A
100
AcDbSymbolTable
100
AcDbDimStyleTable
  0
DIMSTYLE
105
27
100
AcDbSymbolTableRecord
100
AcDbDimStyleTableRecord
  2
ISO-25
 70
     0
  0
ENDTAB
  0
TABLE
  2
BLOCK_RECORD
  5
1
100
AcDbSymbolTable
  0
BLOCK_RECORD
  5
1F
100
AcDbSymbolTableRecord
100
AcDbBlockTableRecord
  2
*Model_Space
  0
BLOCK_RECORD
  5
D2
100
AcDbSymbolTableRecord
100
AcDbBlockTableRecord
  2
*Paper_Space
  0
BLOCK_RECORD
  5
D6
100
AcDbSymbolTableRecord
100
AcDbBlockTableRecord
  2
*Paper_Space0
0
BLOCK_RECORD
  5
82
100
AcDbSymbolTableRecord
100
AcDbBlockTableRecord
  2
STXPOINT
  0
ENDTAB
  0
ENDSEC
  0
SECTION
  2
BLOCKS
  0
BLOCK
  5
20
100
AcDbEntity
100
AcDbBlockBegin
  2
*Model_Space
 70
     0
  0
ENDBLK
  5
21
100
AcDbEntity
100
AcDbBlockEnd
  0
BLOCK
  5
D4
100
AcDbEntity
 67
     1
100
AcDbBlockBegin
  2
*Paper_Space
 70
     0
  0
ENDBLK
  5
D5
100
AcDbEntity
 67
     1
100
AcDbBlockEnd
  0
BLOCK
  5
D8
100
AcDbEntity
 67
     1
100
AcDbBlockBegin
  2
*Paper_Space0
 70
     0
  0
ENDBLK
  5
D9
100
AcDbEntity
 67
     1
100
AcDbBlockEnd
0
BLOCK
5
20E
100
AcDbEntity
8
LAYER_DEFAULT
100
AcDbBlockBegin
2
STXPOINT
70
2
10
0.000000
20
0.000000
30
0.000000
3
STXPOINT
1
STXPOINT
0
POINT
5
20F
100
AcDbEntity
8
LAYER_DEFAULT
100
AcDbPoint
10
0.000000
20
0.000000
30
0.000000
0
ATTDEF
5
210
100
AcDbEntity
8
LAYER_DEFAULT
100
AcDbText
10
0.000000
20
-0.660000
30
0.000000
40
0.600000
1
100
100
AcDbAttributeDefinition
3

2
NAME
70
0
0
ATTDEF
5
211
100
AcDbEntity
8
LAYER_DEFAULT
100
AcDbText
10
0.000000
20
-1.320000
30
0.000000
40
0.600000
1
nenhum
100
AcDbAttributeDefinition
3

2
DESCRIPTION
70
0
0
ATTDEF
5
212
100
AcDbEntity
8
LAYER_DEFAULT
100
AcDbText
10
0.000000
20
-1.980000
30
0.000000
40
0.600000
1
NN
100
AcDbAttributeDefinition
3

2
CODE
70
0
0
ATTDEF
5
213
100
AcDbEntity
8
LAYER_DEFAULT
100
AcDbText
10
0.000000
20
-2.640
30
0.000000
40
0.600000
1
0.00
100
AcDbAttributeDefinition
3

2
HEIGHT
70
0
0
ATTDEF
5
214
100
AcDbEntity
8
LAYER_DEFAULT
100
AcDbText
10
0.000000
20
-3.300
30
0.000000
40
0.600000
1
0.00
100
AcDbAttributeDefinition
3

2
COORD_X
70
0
0
ATTDEF
5
215
100
AcDbEntity
8
LAYER_DEFAULT
100
AcDbText
10
0.000000
20
-3.960
30
0.000000
40
0.600000
1
0.00
100
AcDbAttributeDefinition
3

2
COORD_Y
70
0
0
ATTDEF
5
216
100
AcDbEntity
8
LAYER_DEFAULT
100
AcDbText
10
0.000000
20
-4.620000
30
0.000000
40
0.600000
1
LAYER_DEFAULT
100
AcDbAttributeDefinition
3

2
LAYERPT
70
0
0
ENDBLK
5
217
100
AcDbEntity
100
AcDbBlockEnd
0
ENDSEC
0
SECTION
2
ENTITIES
0
POINT
5
218
100
AcDbEntity
8
GPSREFSTATIONS
6
STXCUBE0
62
160
100
AcDbPoint
10
491205.640000
20
8738857.402014
30
320.490000
0
TEXT
5
219
100
AcDbEntity
8
POINTNAMES
100
AcDbText
10
491206.140000
20
8738857.452014
30
320.490000
40
0.800000
41
1
1
AutoBase
50
0
100
AcDbText
0
POINT
5
21A
100
AcDbEntity
8
GPSREFSTATIONS
6
STXCUBE0
62
160
100
AcDbPoint
10
491205.640000
20
8738857.402014
30
320.490000
0
TEXT
5
21B
100
AcDbEntity
8
POINTNAMES
100
AcDbText
10
491206.140000
20
8738857.452014
30
320.490000
40
0.800000
41
1
1
RTCM-Ref 1
50
0
100
AcDbText
0
POINT
5
21C
100
AcDbEntity
8
GPSFIXEDPOINT
6
STXCUBE0
62
106
100
AcDbPoint
10
491199.571615
20
8738840.076946
30
318.435293
0
TEXT
5
21D
100
AcDbEntity
8
POINTNAMES
100
AcDbText
10
491200.071615
20
8738840.126946
30
318.435293
40
0.800000
41
1
1
1
50
0
100
AcDbText
0
POINT
5
21E
100
AcDbEntity
8
GPSFIXEDPOINT
6
STXCUBE0
62
106
100
AcDbPoint
10
491159.977919
20
8738824.912070
30
319.375590
0
TEXT
5
21F
100
AcDbEntity
8
POINTNAMES
100
AcDbText
10
491160.477919
20
8738824.962070
30
319.375590
40
0.800000
41
1
1
2
50
0
100
AcDbText
0
POINT
5
220
100
AcDbEntity
8
GPSFIXEDPOINT
6
STXCUBE0
62
106
100
AcDbPoint
10
491124.084483
20
8738816.159067
30
319.782902
0
TEXT
5
221
100
AcDbEntity
8
POINTNAMES
100
AcDbText
10
491124.584483
20
8738816.209067
30
319.782902
40
0.800000
41
1
1
3
50
0
100
AcDbText
0
POINT
5
222
100
AcDbEntity
8
GPSFIXEDPOINT
6
STXCUBE0
62
106
100
AcDbPoint
10
491056.331373
20
8738800.088707
30
319.622197
0
TEXT
5
223
100
AcDbEntity
8
POINTNAMES
100
AcDbText
10
491056.831373
20
8738800.138707
30
319.622197
40
0.800000
41
1
1
4
50
0
100
AcDbText
0
POINT
5
224
100
AcDbEntity
8
GPSFIXEDPOINT
6
STXCUBE0
62
106
100
AcDbPoint
10
491035.922100
20
8738795.292684
30
319.358852
0
TEXT
5
225
100
AcDbEntity
8
POINTNAMES
100
AcDbText
10
491036.422100
20
8738795.342684
30
319.358852
40
0.800000
41
1
1
5
50
0
100
AcDbText
0
POINT
5
226
100
AcDbEntity
8
GPSFIXEDPOINT
6
STXCUBE0
62
106
100
AcDbPoint
10
490987.966242
20
8738791.265385
30
319.762842
0
TEXT
5
227
100
AcDbEntity
8
POINTNAMES
100
AcDbText
10
490988.466242
20
8738791.315385
30
319.762842
40
0.800000
41
1
1
6
50
0
100
AcDbText
0
POINT
5
228
100
AcDbEntity
8
GPSFIXEDPOINT
6
STXCUBE0
62
106
100
AcDbPoint
10
490926.490805
20
8738769.150666
30
321.327122
0
TEXT
5
229
100
AcDbEntity
8
POINTNAMES
100
AcDbText
10
490926.990805
20
8738769.200666
30
321.327122
40
0.800000
41
1
1
7
50
0
100
AcDbText
0
POINT
5
22A
100
AcDbEntity
8
GPSFIXEDPOINT
6
STXCUBE0
62
106
100
AcDbPoint
10
490843.465158
20
8738749.864201
30
324.338409
0
TEXT
5
22B
100
AcDbEntity
8
POINTNAMES
100
AcDbText
10
490843.965158
20
8738749.914201
30
324.338409
40
0.800000
41
1
1
8
50
0
100
AcDbText
0
POINT
5
22C
100
AcDbEntity
8
GPSFIXEDPOINT
6
STXCUBE0
62
106
100
AcDbPoint
10
490764.449532
20
8738731.966721
30
327.624699
0
TEXT
5
22D
100
AcDbEntity
8
POINTNAMES
100
AcDbText
10
490764.949532
20
8738732.016721
30
327.624699
40
0.800000
41
1
1
9 Estrada/Justiliano
50
0
100
AcDbText
0
POINT
5
22E
100
AcDbEntity
8
GPSFIXEDPOINT
6
STXCUBE0
62
106
100
AcDbPoint
10
490771.547325
20
8738831.093725
30
323.801929
0
TEXT
5
22F
100
AcDbEntity
8
POINTNAMES
100
AcDbText
10
490772.047325
20
8738831.143725
30
323.801929
40
0.800000
41
1
1
10
50
0
100
AcDbText
0
POINT
5
230
100
AcDbEntity
8
GPSFIXEDPOINT
6
STXCUBE0
62
106
100
AcDbPoint
10
490776.245322
20
8738901.490961
30
323.040093
0
TEXT
5
231
100
AcDbEntity
8
POINTNAMES
100
AcDbText
10
490776.745322
20
8738901.540961
30
323.040093
40
0.800000
41
1
1
11
50
0
100
AcDbText
0
POINT
5
232
100
AcDbEntity
8
GPSFIXEDPOINT
6
STXCUBE0
62
106
100
AcDbPoint
10
490780.509440
20
8738968.346600
30
320.066581
0
TEXT
5
233
100
AcDbEntity
8
POINTNAMES
100
AcDbText
10
490781.009440
20
8738968.396600
30
320.066581
40
0.800000
41
1
1
12
50
0
100
AcDbText
0
POINT
5
234
100
AcDbEntity
8
GPSFIXEDPOINT
6
STXCUBE0
62
106
100
AcDbPoint
10
490785.281223
20
8739038.440319
30
311.519078
0
TEXT
5
235
100
AcDbEntity
8
POINTNAMES
100
AcDbText
10
490785.781223
20
8739038.490319
30
311.519078
40
0.800000
41
1
1
13
50
0
100
AcDbText
0
POINT
5
236
100
AcDbEntity
8
GPSFIXEDPOINT
6
STXCUBE0
62
106
100
AcDbPoint
10
490789.553332
20
8739120.934882
30
315.424936
0
TEXT
5
237
100
AcDbEntity
8
POINTNAMES
100
AcDbText
10
490790.053332
20
8739120.984882
30
315.424936
40
0.800000
41
1
1
14
50
0
100
AcDbText
0
POINT
5
238
100
AcDbEntity
8
GPSFIXEDPOINT
6
STXCUBE0
62
106
100
AcDbPoint
10
490793.176910
20
8739234.694928
30
312.283200
0
TEXT
5
239
100
AcDbEntity
8
POINTNAMES
100
AcDbText
10
490793.676910
20
8739234.744928
30
312.283200
40
0.800000
41
1
1
15
50
0
100
AcDbText
0
POINT
5
23A
100
AcDbEntity
8
GPSFIXEDPOINT
6
STXCUBE0
62
106
100
AcDbPoint
10
490786.929422
20
8739298.928536
30
306.181683
0
TEXT
5
23B
100
AcDbEntity
8
POINTNAMES
100
AcDbText
10
490787.429422
20
8739298.978536
30
306.181683
40
0.800000
41
1
1
16
50
0
100
AcDbText
0
POINT
5
23C
100
AcDbEntity
8
GPSFIXEDPOINT
6
STXCUBE0
62
106
100
AcDbPoint
10
490777.484346
20
8739391.705350
30
299.748898
0
TEXT
5
23D
100
AcDbEntity
8
POINTNAMES
100
AcDbText
10
490777.984346
20
8739391.755350
30
299.748898
40
0.800000
41
1
1
17
50
0
100
AcDbText
0
POINT
5
23E
100
AcDbEntity
8
GPSFIXEDPOINT
6
STXCUBE0
62
106
100
AcDbPoint
10
490773.640689
20
8739430.873444
30
298.580989
0
TEXT
5
23F
100
AcDbEntity
8
POINTNAMES
100
AcDbText
10
490774.140689
20
8739430.923444
30
298.580989
40
0.800000
41
1
1
18
50
0
100
AcDbText
0
POINT
5
240
100
AcDbEntity
8
GPSFIXEDPOINT
6
STXCUBE0
62
106
100
AcDbPoint
10
490756.740002
20
8739612.366948
30
304.706076
0
TEXT
5
241
100
AcDbEntity
8
POINTNAMES
100
AcDbText
10
490757.240002
20
8739612.416948
30
304.706076
40
0.800000
41
1
1
19
50
0
100
AcDbText
0
POINT
5
242
100
AcDbEntity
8
GPSFIXEDPOINT
6
STXCUBE0
62
106
100
AcDbPoint
10
490749.059119
20
8739686.969069
30
303.652249
0
TEXT
5
243
100
AcDbEntity
8
POINTNAMES
100
AcDbText
10
490749.559119
20
8739687.019069
30
303.652249
40
0.800000
41
1
1
20
50
0
100
AcDbText
0
POINT
5
244
100
AcDbEntity
8
GPSFIXEDPOINT
6
STXCUBE0
62
106
100
AcDbPoint
10
490744.805256
20
8739727.877942
30
304.605011
0
TEXT
5
245
100
AcDbEntity
8
POINTNAMES
100
AcDbText
10
490745.305256
20
8739727.927942
30
304.605011
40
0.800000
41
1
1
21
50
0
100
AcDbText
0
POINT
5
246
100
AcDbEntity
8
GPSFIXEDPOINT
6
STXCUBE0
62
106
100
AcDbPoint
10
490728.157286
20
8739882.694790
30
307.004703
0
TEXT
5
247
100
AcDbEntity
8
POINTNAMES
100
AcDbText
10
490728.657286
20
8739882.744790
30
307.004703
40
0.800000
41
1
1
22
50
0
100
AcDbText
0
POINT
5
248
100
AcDbEntity
8
GPSFIXEDPOINT
6
STXCUBE0
62
106
100
AcDbPoint
10
490717.530098
20
8739989.632546
30
307.288951
0
TEXT
5
249
100
AcDbEntity
8
POINTNAMES
100
AcDbText
10
490718.030098
20
8739989.682546
30
307.288951
40
0.800000
41
1
1
23
50
0
100
AcDbText
0
POINT
5
24A
100
AcDbEntity
8
GPSFIXEDPOINT
6
STXCUBE0
62
106
100
AcDbPoint
10
490711.013418
20
8740053.905763
30
305.085100
0
TEXT
5
24B
100
AcDbEntity
8
POINTNAMES
100
AcDbText
10
490711.513418
20
8740053.955763
30
305.085100
40
0.800000
41
1
1
24
50
0
100
AcDbText
0
POINT
5
24C
100
AcDbEntity
8
GPSFIXEDPOINT
6
STXCUBE0
62
106
100
AcDbPoint
10
490705.889926
20
8740112.687741
30
303.507236
0
TEXT
5
24D
100
AcDbEntity
8
POINTNAMES
100
AcDbText
10
490706.389926
20
8740112.737741
30
303.507236
40
0.800000
41
1
1
25
50
0
100
AcDbText
0
POINT
5
24E
100
AcDbEntity
8
GPSFIXEDPOINT
6
STXCUBE0
62
106
100
AcDbPoint
10
490706.766053
20
8740118.006593
30
303.445248
0
TEXT
5
24F
100
AcDbEntity
8
POINTNAMES
100
AcDbText
10
490707.266053
20
8740118.056593
30
303.445248
40
0.800000
41
1
1
26
50
0
100
AcDbText
0
POINT
5
250
100
AcDbEntity
8
GPSFIXEDPOINT
6
STXCUBE0
62
106
100
AcDbPoint
10
490712.801527
20
8740140.154168
30
303.030633
0
TEXT
5
251
100
AcDbEntity
8
POINTNAMES
100
AcDbText
10
490713.301527
20
8740140.204168
30
303.030633
40
0.800000
41
1
1
27
50
0
100
AcDbText
0
POINT
5
252
100
AcDbEntity
8
GPSFIXEDPOINT
6
STXCUBE0
62
106
100
AcDbPoint
10
490727.747224
20
8740189.400348
30
302.863748
0
TEXT
5
253
100
AcDbEntity
8
POINTNAMES
100
AcDbText
10
490728.247224
20
8740189.450348
30
302.863748
40
0.800000
41
1
1
28
50
0
100
AcDbText
0
POINT
5
254
100
AcDbEntity
8
GPSFIXEDPOINT
6
STXCUBE0
62
106
100
AcDbPoint
10
490749.344965
20
8740241.957582
30
302.590870
0
TEXT
5
255
100
AcDbEntity
8
POINTNAMES
100
AcDbText
10
490749.844965
20
8740242.007582
30
302.590870
40
0.800000
41
1
1
29
50
0
100
AcDbText
0
POINT
5
256
100
AcDbEntity
8
GPSFIXEDPOINT
6
STXCUBE0
62
106
100
AcDbPoint
10
490765.164550
20
8740271.320679
30
300.050605
0
TEXT
5
257
100
AcDbEntity
8
POINTNAMES
100
AcDbText
10
490765.664550
20
8740271.370679
30
300.050605
40
0.800000
41
1
1
30 Justiliano/Varguim Serra
50
0
100
AcDbText
0
POINT
5
258
100
AcDbEntity
8
GPSFIXEDPOINT
6
STXCUBE0
62
106
100
AcDbPoint
10
490789.717978
20
8740251.314406
30
299.643560
0
TEXT
5
259
100
AcDbEntity
8
POINTNAMES
100
AcDbText
10
490790.217978
20
8740251.364406
30
299.643560
40
0.800000
41
1
1
31
50
0
100
AcDbText
0
POINT
5
25A
100
AcDbEntity
8
GPSFIXEDPOINT
6
STXCUBE0
62
106
100
AcDbPoint
10
490824.916134
20
8740220.627519
30
301.858822
0
TEXT
5
25B
100
AcDbEntity
8
POINTNAMES
100
AcDbText
10
490825.416134
20
8740220.677519
30
301.858822
40
0.800000
41
1
1
32
50
0
100
AcDbText
0
POINT
5
25C
100
AcDbEntity
8
GPSFIXEDPOINT
6
STXCUBE0
62
106
100
AcDbPoint
10
490850.282630
20
8740199.500844
30
299.439441
0
TEXT
5
25D
100
AcDbEntity
8
POINTNAMES
100
AcDbText
10
490850.782630
20
8740199.550844
30
299.439441
40
0.800000
41
1
1
33
50
0
100
AcDbText
0
POINT
5
25E
100
AcDbEntity
8
GPSFIXEDPOINT
6
STXCUBE0
62
106
100
AcDbPoint
10
490883.490025
20
8740171.591408
30
297.108043
0
TEXT
5
25F
100
AcDbEntity
8
POINTNAMES
100
AcDbText
10
490883.990025
20
8740171.641408
30
297.108043
40
0.800000
41
1
1
34
50
0
100
AcDbText
0
POINT
5
260
100
AcDbEntity
8
GPSFIXEDPOINT
6
STXCUBE0
62
106
100
AcDbPoint
10
490902.280015
20
8740155.668721
30
297.320007
0
TEXT
5
261
100
AcDbEntity
8
POINTNAMES
100
AcDbText
10
490902.780015
20
8740155.718721
30
297.320007
40
0.800000
41
1
1
35
50
0
100
AcDbText
0
POINT
5
262
100
AcDbEntity
8
GPSFIXEDPOINT
6
STXCUBE0
62
106
100
AcDbPoint
10
490940.575838
20
8740123.192447
30
299.655932
0
TEXT
5
263
100
AcDbEntity
8
POINTNAMES
100
AcDbText
10
490941.075838
20
8740123.242447
30
299.655932
40
0.800000
41
1
1
36 Varguim Serra/Roger
50
0
100
AcDbText
0
POINT
5
264
100
AcDbEntity
8
GPSFIXEDPOINT
6
STXCUBE0
62
106
100
AcDbPoint
10
490994.127772
20
8740077.972049
30
304.709162
0
TEXT
5
265
100
AcDbEntity
8
POINTNAMES
100
AcDbText
10
490994.627772
20
8740078.022049
30
304.709162
40
0.800000
41
1
1
37
50
0
100
AcDbText
0
POINT
5
266
100
AcDbEntity
8
GPSFIXEDPOINT
6
STXCUBE0
62
106
100
AcDbPoint
10
491047.624061
20
8740029.317695
30
304.413717
0
TEXT
5
267
100
AcDbEntity
8
POINTNAMES
100
AcDbText
10
491048.124061
20
8740029.367695
30
304.413717
40
0.800000
41
1
1
38
50
0
100
AcDbText
0
POINT
5
268
100
AcDbEntity
8
GPSFIXEDPOINT
6
STXCUBE0
62
106
100
AcDbPoint
10
491074.722484
20
8740002.465823
30
302.857989
0
TEXT
5
269
100
AcDbEntity
8
POINTNAMES
100
AcDbText
10
491075.222484
20
8740002.515823
30
302.857989
40
0.800000
41
1
1
39
50
0
100
AcDbText
0
POINT
5
26A
100
AcDbEntity
8
GPSFIXEDPOINT
6
STXCUBE0
62
106
100
AcDbPoint
10
491114.242896
20
8739962.891980
30
302.234564
0
TEXT
5
26B
100
AcDbEntity
8
POINTNAMES
100
AcDbText
10
491114.742896
20
8739962.941980
30
302.234564
40
0.800000
41
1
1
40
50
0
100
AcDbText
0
POINT
5
26C
100
AcDbEntity
8
GPSFIXEDPOINT
6
STXCUBE0
62
106
100
AcDbPoint
10
491153.914427
20
8739922.835363
30
305.195806
0
TEXT
5
26D
100
AcDbEntity
8
POINTNAMES
100
AcDbText
10
491154.414427
20
8739922.885363
30
305.195806
40
0.800000
41
1
1
41
50
0
100
AcDbText
0
POINT
5
26E
100
AcDbEntity
8
GPSFIXEDPOINT
6
STXCUBE0
62
106
100
AcDbPoint
10
491195.098129
20
8739879.737354
30
305.859373
0
TEXT
5
26F
100
AcDbEntity
8
POINTNAMES
100
AcDbText
10
491195.598129
20
8739879.787354
30
305.859373
40
0.800000
41
1
1
42
50
0
100
AcDbText
0
POINT
5
270
100
AcDbEntity
8
GPSFIXEDPOINT
6
STXCUBE0
62
106
100
AcDbPoint
10
491236.970752
20
8739830.863824
30
302.001594
0
TEXT
5
271
100
AcDbEntity
8
POINTNAMES
100
AcDbText
10
491237.470752
20
8739830.913824
30
302.001594
40
0.800000
41
1
1
43
50
0
100
AcDbText
0
POINT
5
272
100
AcDbEntity
8
GPSFIXEDPOINT
6
STXCUBE0
62
106
100
AcDbPoint
10
491265.365498
20
8739789.512369
30
295.967832
0
TEXT
5
273
100
AcDbEntity
8
POINTNAMES
100
AcDbText
10
491265.865498
20
8739789.562369
30
295.967832
40
0.800000
41
1
1
44
50
0
100
AcDbText
0
POINT
5
274
100
AcDbEntity
8
GPSFIXEDPOINT
6
STXCUBE0
62
106
100
AcDbPoint
10
491292.036927
20
8739756.735216
30
287.199423
0
TEXT
5
275
100
AcDbEntity
8
POINTNAMES
100
AcDbText
10
491292.536927
20
8739756.785216
30
287.199423
40
0.800000
41
1
1
45
50
0
100
AcDbText
0
POINT
5
276
100
AcDbEntity
8
GPSFIXEDPOINT
6
STXCUBE0
62
106
100
AcDbPoint
10
491336.251919
20
8739702.475346
30
292.186298
0
TEXT
5
277
100
AcDbEntity
8
POINTNAMES
100
AcDbText
10
491336.751919
20
8739702.525346
30
292.186298
40
0.800000
41
1
1
46
50
0
100
AcDbText
0
POINT
5
278
100
AcDbEntity
8
GPSFIXEDPOINT
6
STXCUBE0
62
106
100
AcDbPoint
10
491368.760319
20
8739673.618122
30
293.945232
0
TEXT
5
279
100
AcDbEntity
8
POINTNAMES
100
AcDbText
10
491369.260319
20
8739673.668122
30
293.945232
40
0.800000
41
1
1
47
50
0
100
AcDbText
0
POINT
5
27A
100
AcDbEntity
8
GPSFIXEDPOINT
6
STXCUBE0
62
106
100
AcDbPoint
10
491375.393814
20
8739661.235219
30
294.126870
0
TEXT
5
27B
100
AcDbEntity
8
POINTNAMES
100
AcDbText
10
491375.893814
20
8739661.285219
30
294.126870
40
0.800000
41
1
1
48
50
0
100
AcDbText
0
POINT
5
27C
100
AcDbEntity
8
GPSFIXEDPOINT
6
STXCUBE0
62
106
100
AcDbPoint
10
491416.985313
20
8739563.592245
30
294.726977
0
TEXT
5
27D
100
AcDbEntity
8
POINTNAMES
100
AcDbText
10
491417.485313
20
8739563.642245
30
294.726977
40
0.800000
41
1
1
49
50
0
100
AcDbText
0
POINT
5
27E
100
AcDbEntity
8
GPSFIXEDPOINT
6
STXCUBE0
62
106
100
AcDbPoint
10
491473.068156
20
8739448.674232
30
287.335045
0
TEXT
5
27F
100
AcDbEntity
8
POINTNAMES
100
AcDbText
10
491473.568156
20
8739448.724232
30
287.335045
40
0.800000
41
1
1
50
50
0
100
AcDbText
0
POINT
5
280
100
AcDbEntity
8
GPSFIXEDPOINT
6
STXCUBE0
62
106
100
AcDbPoint
10
491480.637426
20
8739426.765901
30
287.503994
0
TEXT
5
281
100
AcDbEntity
8
POINTNAMES
100
AcDbText
10
491481.137426
20
8739426.815901
30
287.503994
40
0.800000
41
1
1
51
50
0
100
AcDbText
0
POINT
5
282
100
AcDbEntity
8
GPSFIXEDPOINT
6
STXCUBE0
62
106
100
AcDbPoint
10
491489.567680
20
8739393.747814
30
287.428918
0
TEXT
5
283
100
AcDbEntity
8
POINTNAMES
100
AcDbText
10
491490.067680
20
8739393.797814
30
287.428918
40
0.800000
41
1
1
52
50
0
100
AcDbText
0
POINT
5
284
100
AcDbEntity
8
GPSFIXEDPOINT
6
STXCUBE0
62
106
100
AcDbPoint
10
491500.282129
20
8739354.127012
30
287.866826
0
TEXT
5
285
100
AcDbEntity
8
POINTNAMES
100
AcDbText
10
491500.782129
20
8739354.177012
30
287.866826
40
0.800000
41
1
1
53
50
0
100
AcDbText
0
POINT
5
286
100
AcDbEntity
8
GPSFIXEDPOINT
6
STXCUBE0
62
106
100
AcDbPoint
10
491507.040736
20
8739331.038150
30
287.949106
0
TEXT
5
287
100
AcDbEntity
8
POINTNAMES
100
AcDbText
10
491507.540736
20
8739331.088150
30
287.949106
40
0.800000
41
1
1
54
50
0
100
AcDbText
0
POINT
5
288
100
AcDbEntity
8
GPSFIXEDPOINT
6
STXCUBE0
62
106
100
AcDbPoint
10
491522.630735
20
8739277.376547
30
287.798315
0
TEXT
5
289
100
AcDbEntity
8
POINTNAMES
100
AcDbText
10
491523.130735
20
8739277.426547
30
287.798315
40
0.800000
41
1
1
55
50
0
100
AcDbText
0
POINT
5
28A
100
AcDbEntity
8
GPSFIXEDPOINT
6
STXCUBE0
62
106
100
AcDbPoint
10
491518.125563
20
8739274.487051
30
287.974975
0
TEXT
5
28B
100
AcDbEntity
8
POINTNAMES
100
AcDbText
10
491518.625563
20
8739274.537051
30
287.974975
40
0.800000
41
1
1
56
50
0
100
AcDbText
0
POINT
5
28C
100
AcDbEntity
8
GPSFIXEDPOINT
6
STXCUBE0
62
106
100
AcDbPoint
10
491523.463533
20
8739264.789913
30
287.890286
0
TEXT
5
28D
100
AcDbEntity
8
POINTNAMES
100
AcDbText
10
491523.963533
20
8739264.839913
30
287.890286
40
0.800000
41
1
1
57
50
0
100
AcDbText
0
POINT
5
28E
100
AcDbEntity
8
GPSFIXEDPOINT
6
STXCUBE0
62
106
100
AcDbPoint
10
491530.473773
20
8739241.974339
30
288.444900
0
TEXT
5
28F
100
AcDbEntity
8
POINTNAMES
100
AcDbText
10
491530.973773
20
8739242.024339
30
288.444900
40
0.800000
41
1
1
58 Roger/Valdete
50
0
100
AcDbText
0
POINT
5
290
100
AcDbEntity
8
GPSFIXEDPOINT
6
STXCUBE0
62
106
100
AcDbPoint
10
491546.875074
20
8739181.080580
30
294.915425
0
TEXT
5
291
100
AcDbEntity
8
POINTNAMES
100
AcDbText
10
491547.375074
20
8739181.130580
30
294.915425
40
0.800000
41
1
1
59
50
0
100
AcDbText
0
POINT
5
292
100
AcDbEntity
8
GPSFIXEDPOINT
6
STXCUBE0
62
106
100
AcDbPoint
10
491559.182680
20
8739135.646781
30
296.771320
0
TEXT
5
293
100
AcDbEntity
8
POINTNAMES
100
AcDbText
10
491559.682680
20
8739135.696781
30
296.771320
40
0.800000
41
1
1
60
50
0
100
AcDbText
0
POINT
5
294
100
AcDbEntity
8
GPSFIXEDPOINT
6
STXCUBE0
62
106
100
AcDbPoint
10
491563.550759
20
8739119.428618
30
294.279949
0
TEXT
5
295
100
AcDbEntity
8
POINTNAMES
100
AcDbText
10
491564.050759
20
8739119.478618
30
294.279949
40
0.800000
41
1
1
61
50
0
100
AcDbText
0
POINT
5
296
100
AcDbEntity
8
GPSFIXEDPOINT
6
STXCUBE0
62
106
100
AcDbPoint
10
491583.332351
20
8739050.573481
30
302.996456
0
TEXT
5
297
100
AcDbEntity
8
POINTNAMES
100
AcDbText
10
491583.832351
20
8739050.623481
30
302.996456
40
0.800000
41
1
1
62
50
0
100
AcDbText
0
POINT
5
298
100
AcDbEntity
8
GPSFIXEDPOINT
6
STXCUBE0
62
106
100
AcDbPoint
10
491608.831659
20
8738961.720110
30
303.663250
0
TEXT
5
299
100
AcDbEntity
8
POINTNAMES
100
AcDbText
10
491609.331659
20
8738961.770110
30
303.663250
40
0.800000
41
1
1
63
50
0
100
AcDbText
0
POINT
5
29A
100
AcDbEntity
8
GPSFIXEDPOINT
6
STXCUBE0
62
106
100
AcDbPoint
10
491617.445991
20
8738930.228177
30
299.509177
0
TEXT
5
29B
100
AcDbEntity
8
POINTNAMES
100
AcDbText
10
491617.945991
20
8738930.278177
30
299.509177
40
0.800000
41
1
1
64 Valdete/estrada
50
0
100
AcDbText
0
POINT
5
29C
100
AcDbEntity
8
GPSFIXEDPOINT
6
STXCUBE0
62
106
100
AcDbPoint
10
491596.375680
20
8738925.401999
30
300.342832
0
TEXT
5
29D
100
AcDbEntity
8
POINTNAMES
100
AcDbText
10
491596.875680
20
8738925.451999
30
300.342832
40
0.800000
41
1
1
65
50
0
100
AcDbText
0
POINT
5
29E
100
AcDbEntity
8
GPSFIXEDPOINT
6
STXCUBE0
62
106
100
AcDbPoint
10
491518.174561
20
8738908.246107
30
303.943458
0
TEXT
5
29F
100
AcDbEntity
8
POINTNAMES
100
AcDbText
10
491518.674561
20
8738908.296107
30
303.943458
40
0.800000
41
1
1
66
50
0
100
AcDbText
0
POINT
5
2A0
100
AcDbEntity
8
GPSFIXEDPOINT
6
STXCUBE0
62
106
100
AcDbPoint
10
491406.084015
20
8738881.877608
30
312.734728
0
TEXT
5
2A1
100
AcDbEntity
8
POINTNAMES
100
AcDbText
10
491406.584015
20
8738881.927608
30
312.734728
40
0.800000
41
1
1
67
50
0
100
AcDbText
0
POINT
5
2A2
100
AcDbEntity
8
GPSFIXEDPOINT
6
STXCUBE0
62
106
100
AcDbPoint
10
491363.937529
20
8738872.056189
30
313.926371
0
TEXT
5
2A3
100
AcDbEntity
8
POINTNAMES
100
AcDbText
10
491364.437529
20
8738872.106189
30
313.926371
40
0.800000
41
1
1
68
50
0
100
AcDbText
0
POINT
5
2A4
100
AcDbEntity
8
GPSFIXEDPOINT
6
STXCUBE0
62
106
100
AcDbPoint
10
491237.616966
20
8738844.165212
30
317.334303
0
TEXT
5
2A5
100
AcDbEntity
8
POINTNAMES
100
AcDbText
10
491238.116966
20
8738844.215212
30
317.334303
40
0.800000
41
1
1
69
50
0
100
AcDbText
0
ENDSEC
  0
SECTION
  2
OBJECTS
  0
DICTIONARY
  5
C
100
AcDbDictionary
281
  1
  3
ACAD_GROUP
350
D
3
ACAD_MLINESTYLE
350
17
  3
AcDbVariableDictionary
350
5E
  3
DWGPROPS
350
1C5
3
ACAD_IMAGE_DICT
350
3C
  0
DICTIONARY
  5
D
100
AcDbDictionary
281
  1
  0
DICTIONARY
  5
1A
100
AcDbDictionary
281
  1
  3
Layout1
350
D3
  3
Layout2
350
D7
  0
DICTIONARY
  5
17
100
AcDbDictionary
281
  1
  3
Standard
350
18
  0
DICTIONARY
  5
19
100
AcDbDictionary
281
  1
  0
ACDBDICTIONARYWDFLT
  5
E
100
AcDbDictionary
281
  1
  3
Normal
350
F
100
AcDbDictionaryWithDefault
340
F
  0
DICTIONARY
  5
5E
100
AcDbDictionary
281
  1
0
DICTIONARY
5
3C
100
AcDbDictionary
281
1
0
DICTIONARY
5
3A
100
AcDbDictionary
281
1
0
LAYOUT
  5
D3
100
AcDbPlotSettings
100
AcDbLayout
  1
Layout1
 70
     1
 71
     1
  0
LAYOUT
  5
D7
100
AcDbPlotSettings
100
AcDbLayout
  1
Layout2
 70
     1
 71
     2
  0
LAYOUT
  5
22
100
AcDbPlotSettings
100
AcDbLayout
  1
Model
 70
     1
 71
     0
0
ENDSEC
0
EOF
